<?xml version="1.0" encoding="utf-8"?>
<!-- Generator: Adobe Illustrator 21.0.0, SVG Export Plug-In . SVG Version: 6.00 Build 0)  -->
<!DOCTYPE svg PUBLIC "-//W3C//DTD SVG 1.1//EN" "http://www.w3.org/Graphics/SVG/1.1/DTD/svg11.dtd">
<svg version="1.1" id="Layer_1" xmlns="http://www.w3.org/2000/svg" xmlns:xlink="http://www.w3.org/1999/xlink" x="0px" y="0px"
	 viewBox="0 0 26.6 26.6" style="enable-background:new 0 0 26.6 26.6;" xml:space="preserve">
<path d="M25.5,1.6H1.1C0.5,1.6,0,2.1,0,2.7v17.1c0,0.6,0.5,1.1,1.1,1.1h13.5l5.2,3.9c0.7,0.5,1.3,0.2,1.3-0.6v-3.2h4.4
	c0.6,0,1.1-0.5,1.1-1.1V2.7C26.6,2.1,26.1,1.6,25.5,1.6z M7.2,12.9c-1,0-1.7-0.8-1.7-1.7s0.8-1.7,1.7-1.7s1.7,0.8,1.7,1.7
	S8.1,12.9,7.2,12.9z M13.3,12.9c-1,0-1.7-0.8-1.7-1.7s0.8-1.7,1.7-1.7s1.7,0.8,1.7,1.7S14.3,12.9,13.3,12.9z M19.5,12.9
	c-1,0-1.7-0.8-1.7-1.7s0.8-1.7,1.7-1.7s1.7,0.8,1.7,1.7S20.4,12.9,19.5,12.9z"/>
</svg>
