<?xml version="1.0" encoding="UTF-8" standalone="no"?>
<svg width="26px" height="21px" viewBox="0 0 26 21" version="1.1" xmlns="http://www.w3.org/2000/svg" xmlns:xlink="http://www.w3.org/1999/xlink" xmlns:sketch="http://www.bohemiancoding.com/sketch/ns">
    <!-- Generator: Sketch 3.4 (15575) - http://www.bohemiancoding.com/sketch -->
    <title>Imported Layers</title>
    <desc>Created with Sketch.</desc>
    <defs></defs>
    <g id="Course-Search" stroke="none" stroke-width="1" fill="none" fill-rule="evenodd" sketch:type="MSPage">
        <g id="Course-Search:-Main" sketch:type="MSArtboardGroup" transform="translate(-1275.000000, -204.000000)" fill="#FFFFFF">
            <g id="Sidebar-/-Navigation-/-Open-/-Overview-Copy" sketch:type="MSLayerGroup" transform="translate(1110.000000, 100.000000)">
                <g id="Icons" transform="translate(37.000000, 77.000000)" sketch:type="MSShapeGroup">
                    <g id="Chat-with-us" transform="translate(95.000000, 0.000000)">
                        <g id="Icon" transform="translate(8.000000, 0.000000)">
                            <path d="M49.2905,43.0618759 C49.3630833,43.3532925 49.2211667,43.4789592 48.97525,43.3381259 L45.2388333,41.2093759 C44.08075,41.5972092 42.8024167,41.8171259 41.4525833,41.8171259 C36.2829167,41.8171259 32.0915,38.6472925 32.0915,34.7364592 C32.0915,30.8245425 36.2829167,27.6536259 41.4525833,27.6536259 C46.6244167,27.6536259 50.8158333,30.8245425 50.8158333,34.7364592 C50.8158333,36.5640425 49.8939167,38.2237092 48.3913333,39.4792925 L49.2905,43.0618759 L49.2905,43.0618759 Z M41.4525833,43.4692092 C35.35125,43.4692092 30.5715833,39.6331259 30.5715833,34.7364592 C30.5715833,33.9802925 30.6983333,33.2544592 30.9128333,32.5589592 C27.4505,33.5989592 25,36.1512925 25,39.1402092 C25,40.9677925 25.923,42.6274592 27.4255833,43.8841259 L26.5253333,47.4656259 C26.45275,47.7581259 26.5946667,47.8816259 26.8405833,47.7418759 L30.577,45.6131259 C31.7350833,46.0020425 33.0145,46.2219592 34.36325,46.2219592 C37.3803333,46.2219592 40.054,45.1364592 41.7656667,43.4583759 C41.6605833,43.4605425 41.5576667,43.4692092 41.4525833,43.4692092 L41.4525833,43.4692092 Z" id="Imported-Layers"></path>
                        </g>
                    </g>
                </g>
            </g>
        </g>
    </g>
</svg>