<?xml version="1.0" encoding="UTF-8" standalone="no"?>
<svg width="59px" height="58px" viewBox="0 0 59 58" version="1.1" xmlns="http://www.w3.org/2000/svg" xmlns:xlink="http://www.w3.org/1999/xlink" xmlns:sketch="http://www.bohemiancoding.com/sketch/ns">
    <!-- Generator: Sketch 3.4 (15575) - http://www.bohemiancoding.com/sketch -->
    <title>Shape</title>
    <desc>Created with Sketch.</desc>
    <defs></defs>
    <g id="Splash-Screens" stroke="none" stroke-width="1" fill="none" fill-rule="evenodd" sketch:type="MSPage">
        <g id="Splash:-Main-Menu-Open" sketch:type="MSArtboardGroup" transform="translate(-1096.000000, -493.000000)" fill="#FFFFFF">
            <g id="Splash-Button-/-Sign-in" sketch:type="MSLayerGroup" transform="translate(1045.227718, 437.000000)">
                <path d="M102.44186,56.1487228 L73.5889635,56.1487228 C70.0628941,56.1487228 67.2426862,59.0336886 67.2426862,62.559758 L67.2426862,72.1763107 L73.5889635,72.1763107 L73.5889635,62.559758 L102.44186,62.559758 L102.44186,107.440242 L73.5889635,107.440242 L73.5889635,101.029207 L67.2426862,101.029207 L67.2426862,107.440242 C67.2426862,110.966311 70.0628941,113.851277 73.5889635,113.851277 L102.44186,113.851277 C105.967929,113.851277 108.852895,110.966311 108.852895,107.440242 L108.852895,62.559758 C108.856133,59.0336886 105.967929,56.1487228 102.44186,56.1487228 L102.44186,56.1487228 Z M79.9999986,99.1091342 L92.822069,86.6076156 L79.9999986,74.1060971 L79.9999986,81.7993393 L51.1471025,81.7993393 L51.1471025,91.415892 L79.9999986,91.415892 L79.9999986,99.1091342 L79.9999986,99.1091342 Z" id="Shape" sketch:type="MSShapeGroup"></path>
            </g>
        </g>
    </g>
</svg>