<?xml version="1.0" encoding="UTF-8" standalone="no"?>
<svg width="20px" height="20px" viewBox="0 0 20 20" version="1.1" xmlns="http://www.w3.org/2000/svg" xmlns:xlink="http://www.w3.org/1999/xlink" xmlns:sketch="http://www.bohemiancoding.com/sketch/ns">
    <!-- Generator: Sketch 3.4 (15575) - http://www.bohemiancoding.com/sketch -->
    <title>Fill 1 Copy</title>
    <desc>Created with Sketch.</desc>
    <defs></defs>
    <g id="Answers" stroke="none" stroke-width="1" fill="none" fill-rule="evenodd" sketch:type="MSPage">
        <g id="Answers:-Detail-NEW" sketch:type="MSArtboardGroup" transform="translate(-875.000000, -1165.000000)" fill="#00A1B0">
            <g id="Also-Viewed" sketch:type="MSLayerGroup" transform="translate(250.000000, 1113.000000)">
                <g id="Row-1-Copy-2" transform="translate(15.000000, 49.000000)" sketch:type="MSShapeGroup">
                    <path d="M620,22.5813636 C614.716818,22.5813636 610.418636,18.2831818 610.418636,13 C610.418636,7.71681818 614.716818,3.41863636 620,3.41863636 C625.283182,3.41863636 629.581364,7.71681818 629.581364,13 C629.581364,18.2831818 625.283182,22.5813636 620,22.5813636 Z M620,4.32772727 C615.218182,4.32772727 611.327727,8.21818182 611.327727,13 C611.327727,17.7822727 615.218182,21.6722727 620,21.6722727 C624.782273,21.6722727 628.672273,17.7822727 628.672273,13 C628.672273,8.21818182 624.782273,4.32772727 620,4.32772727 Z M622.429091,12.7727273 L619.111818,9.45590909 C619.023182,9.36727273 618.906818,9.32272727 618.790455,9.32272727 C618.674091,9.32272727 618.558182,9.36727273 618.469091,9.45590909 C618.291818,9.63363636 618.291818,9.92136364 618.469091,10.0986364 L621.475455,13.105 L618.469091,16.1109091 C618.291818,16.2881818 618.291818,16.5759091 618.469091,16.7536364 C618.558182,16.8422727 618.674091,16.8868182 618.790455,16.8868182 C618.906818,16.8868182 619.023182,16.8422727 619.111818,16.7536364 L622.429091,13.4368182 C622.520455,13.3454545 622.563182,13.2245455 622.56,13.105 C622.563182,12.985 622.520455,12.8640909 622.429091,12.7727273 Z" id="Fill-1-Copy"></path>
                </g>
            </g>
        </g>
    </g>
</svg>