<?xml version="1.0" encoding="UTF-8" standalone="no"?>
<svg width="77px" height="65px" viewBox="0 0 77 65" version="1.1" xmlns="http://www.w3.org/2000/svg" xmlns:xlink="http://www.w3.org/1999/xlink" xmlns:sketch="http://www.bohemiancoding.com/sketch/ns">
    <!-- Generator: Sketch 3.4 (15575) - http://www.bohemiancoding.com/sketch -->
    <title>Shape</title>
    <desc>Created with Sketch.</desc>
    <defs></defs>
    <g id="Splash-Screens" stroke="none" stroke-width="1" fill="none" fill-rule="evenodd" sketch:type="MSPage">
        <g id="Splash:-Main-Menu-Open" sketch:type="MSArtboardGroup" transform="translate(-617.000000, -494.000000)" fill="#FFFFFF">
            <g id="Splash-Button-/-Course-Search" sketch:type="MSLayerGroup" transform="translate(565.495909, 437.000000)">
                <path d="M85.4423009,67.8628507 L66.9832081,58.3484098 C62.8912267,56.1935007 54.827912,60.3558601 52.5121388,64.0188705 C51.4765759,65.6543225 51.5536566,66.8373442 51.5536566,67.5076114 L51.9223036,102.264318 C51.945763,103.001612 52.8740831,103.996959 53.6717011,104.486254 C55.3272611,105.50506 80.4120119,121.165854 81.1224951,121.60823 C81.5045474,121.846175 81.9569778,121.956769 82.4027055,121.956769 C82.7814065,121.956769 83.1668101,121.872986 83.5086464,121.702068 C84.2660484,121.333421 84.7318841,120.612883 84.7318841,119.828671 L84.7318841,83.3225665 C84.7318841,82.5618132 84.2861564,81.8580326 83.5656191,81.4793316 L56.423148,66.3279411 C56.7314709,65.7314032 57.9379519,64.4679495 60.1565364,63.3083872 C62.495769,62.0851496 64.2451665,62.5442826 64.6473268,62.7017954 C64.6473268,62.7017954 76.6357382,69.1171072 84.5950148,73.3728076 C84.6081973,71.4559543 84.9038092,69.6061182 85.4423009,67.8628507 Z M92.299201,88.9066883 L92.299201,112.881351 C92.299201,114.61064 94.0553012,115.317772 95.3422142,115.317772 C96.6291273,115.317772 97.9998238,114.05767 97.9998238,112.881351 L97.9998238,92.0330162 C95.9349081,91.3118757 94.0098924,90.2449776 92.299201,88.9066883 Z M127.257652,91.7834907 L117.639883,82.1657219 C119.087305,79.7824898 119.925421,76.9827704 119.925421,73.9902329 C119.925421,65.2928494 112.387517,57.7575166 103.692705,57.7575166 C94.997892,57.7575166 87.94589,64.8095186 87.94589,73.5069021 C87.94589,82.2042856 95.4837937,89.7370475 104.176035,89.7370475 C107.068307,89.7370475 109.778045,88.9529204 112.104717,87.5954807 L121.776475,97.2672385 C122.722569,98.2133329 124.257402,98.2133329 125.203496,97.2672385 L127.604725,94.8685809 C128.545677,93.9199156 128.203746,92.729585 127.257652,91.7834907 Z M92.7869107,73.5043312 C92.7869107,67.4832635 97.6664951,62.6011082 103.687563,62.6011082 C109.711201,62.6011082 115.076687,67.9665943 115.076687,73.9902329 C115.076687,80.0113006 110.197103,84.890885 104.173464,84.890885 C98.1523968,84.890885 92.7869107,79.5253989 92.7869107,73.5043312 L92.7869107,73.5043312 Z" id="Shape" sketch:type="MSShapeGroup"></path>
            </g>
        </g>
    </g>
</svg>