<?xml version="1.0" encoding="UTF-8" standalone="no"?>
<svg width="26px" height="18px" viewBox="0 0 26 18" version="1.1" xmlns="http://www.w3.org/2000/svg" xmlns:xlink="http://www.w3.org/1999/xlink" xmlns:sketch="http://www.bohemiancoding.com/sketch/ns">
    <!-- Generator: Sketch 3.4 (15575) - http://www.bohemiancoding.com/sketch -->
    <title>Fill 1</title>
    <desc>Created with Sketch.</desc>
    <defs></defs>
    <g id="Course-Search" stroke="none" stroke-width="1" fill="none" fill-rule="evenodd" sketch:type="MSPage">
        <g id="Course-Search:-Main" sketch:type="MSArtboardGroup" transform="translate(-1173.000000, -206.000000)" fill="#FFFFFF">
            <g id="Sidebar-/-Navigation-/-Open-/-Overview-Copy" sketch:type="MSLayerGroup" transform="translate(1110.000000, 100.000000)">
                <g id="Icons" transform="translate(37.000000, 77.000000)" sketch:type="MSShapeGroup">
                    <g id="Email-Us">
                        <g id="Icon">
                            <path d="M39.583886,39.6284145 C39.5022798,39.6931813 39.4025389,39.7281554 39.3027979,39.7281554 C39.210829,39.7281554 39.1201554,39.6983627 39.0411399,39.6426632 L26.691399,30.699658 C26.4595337,31.1025078 26.33,31.5843731 26.33,32.1219378 L26.33,43.7540622 C26.33,45.2838549 27.449171,46.438 28.9362176,46.438 L48.699171,46.438 C50.1784456,46.438 51.3831088,45.2346321 51.3831088,43.7540622 L51.3831088,32.1219378 C51.3831088,31.4898135 51.203057,30.9354093 50.8908808,30.4962902 L39.583886,39.6284145 Z M50.2419171,29.8693472 C49.8157513,29.5934404 49.2911399,29.438 48.699171,29.438 L29.0139378,29.438 C28.3248187,29.438 27.7276684,29.6478446 27.2717098,30.0144249 L39.2885492,38.7177927 L50.2419171,29.8693472 Z" id="Fill-1"></path>
                        </g>
                    </g>
                </g>
            </g>
        </g>
    </g>
</svg>