<svg xmlns="http://www.w3.org/2000/svg" xmlns:xlink="http://www.w3.org/1999/xlink" preserveAspectRatio="xMidYMid" width="50" height="50" viewBox="0 0 50 50">
  <defs>
    <style>
      .cls-1 {
        fill: #000;
        fill-rule: evenodd;
      }
    </style>
  </defs>
  <path d="M0.861,35.098 C2.017,31.316 4.173,28.269 7.329,25.956 C10.485,23.643 14.047,22.486 18.015,22.486 C21.983,22.486 25.545,23.643 28.701,25.956 C31.857,28.269 34.013,31.316 35.169,35.098 C35.417,35.878 35.355,36.637 34.983,37.373 C34.611,38.109 34.017,38.602 33.201,38.850 C32.421,39.098 31.663,39.036 30.927,38.664 C30.191,38.292 29.699,37.697 29.451,36.881 C28.671,34.380 27.225,32.355 25.113,30.806 C23.001,29.258 20.633,28.483 18.009,28.483 C15.385,28.483 13.017,29.258 10.905,30.806 C8.793,32.355 7.347,34.380 6.567,36.881 C6.319,37.693 5.819,38.288 5.067,38.664 C4.315,39.040 3.549,39.102 2.769,38.850 C1.989,38.598 1.411,38.105 1.035,37.373 C0.659,36.641 0.597,35.882 0.849,35.098 L0.861,35.098 ZM12.000,5.993 C12.000,7.650 11.414,9.064 10.242,10.237 C9.070,11.409 7.656,11.995 6.000,11.995 C4.344,11.995 2.930,11.409 1.758,10.237 C0.586,9.064 -0.000,7.650 -0.000,5.993 C-0.000,4.336 0.586,2.921 1.758,1.749 C2.930,0.576 4.344,-0.010 6.000,-0.010 C7.656,-0.010 9.070,0.576 10.242,1.749 C11.414,2.921 12.000,4.336 12.000,5.993 ZM36.000,5.993 C36.000,7.650 35.414,9.064 34.242,10.237 C33.070,11.409 31.656,11.995 30.000,11.995 C28.344,11.995 26.930,11.409 25.758,10.237 C24.586,9.064 24.000,7.650 24.000,5.993 C24.000,4.336 24.586,2.921 25.758,1.749 C26.930,0.576 28.344,-0.010 30.000,-0.010 C31.656,-0.010 33.070,0.576 34.242,1.749 C35.414,2.921 36.000,4.336 36.000,5.993 Z" transform="translate(7 5.5)" class="cls-1"/>
</svg>
