<?xml version="1.0" encoding="utf-8"?>
<!-- Generator: Adobe Illustrator 19.2.0, SVG Export Plug-In . SVG Version: 6.00 Build 0)  -->
<!DOCTYPE svg PUBLIC "-//W3C//DTD SVG 1.1//EN" "http://www.w3.org/Graphics/SVG/1.1/DTD/svg11.dtd">
<svg version="1.1" id="Layer_1" xmlns:sketch="http://www.bohemiancoding.com/sketch/ns"
	 xmlns="http://www.w3.org/2000/svg" xmlns:xlink="http://www.w3.org/1999/xlink" x="0px" y="0px" viewBox="0 0 27 27"
	 style="enable-background:new 0 0 27 27;" xml:space="preserve">
<title>Shape Copy 9</title>
<desc>Created with Sketch.</desc>
<title>Shape Copy 9</title>
<desc>Created with Sketch.</desc>
<g>
	<path d="M12.8,26.2c-0.2-0.5-0.2-0.8-0.2-1.1c0-0.1,0.1-0.7,0.5-1.1c0.2-0.2,0.6-0.4,0.7-0.5c0.4-0.1,0.7-0.2,1.2-0.2
		c1.3,0,2.2,0,2.5,0c0.1,0,0.4,0,0.6,0.1c0.2,0,0.4,0.1,0.5,0.1c0.6-0.4,1.2-0.7,1.8-1.2c0.6-1.1,1.1-2.3,1.3-3.5
		c0-0.1-0.1-0.2-0.1-0.4v-7.1c0-0.1,0-0.1,0-0.2c-0.7-3.9-2.8-6.5-8.2-6.5c-5.3,0-7.4,2.7-8.2,6.5c0,0.1,0,0.1,0,0.2v7.1
		c0,0.1,0,0.2-0.1,0.4c1,4.6,4.2,8,8,8.1c-0.1,0-0.1-0.1-0.2-0.1C12.9,26.4,12.8,26.2,12.8,26.2z"/>
	<path d="M25,10.7l-0.2-0.1v-0.2C24.3,4.6,19.3,0,13.5,0C7.6,0,2.7,4.6,2.3,10.4v0.2l-0.2,0.1c-1.3,0.4-1.7,1.7-1.7,3.7v0.7
		c0,1,0.2,3.9,2.5,3.9c0.4,0,1.8-0.1,1.8-0.7v-7.1c0-0.2-0.2-0.5-0.7-0.6l-0.2-0.1v-0.2c0.5-5.1,4.7-8.9,9.8-8.9s9.3,3.9,9.8,8.9
		v0.2l-0.2,0.1c-0.5,0.1-0.7,0.4-0.7,0.6v7.1c0,0.4,0.5,0.5,1,0.6l0.4,0.1l-0.2,0.4c-0.8,1.8-2.3,3.3-4.1,4.2l0,0
		c-0.2,0.1-0.5,0.2-0.6,0.4l-0.1,0.1h-0.1C18.4,24,18.1,24,17.9,24s-0.4,0-0.5,0c-0.4,0-1.2,0-2.5,0h-0.1c-0.2,0-0.6,0-0.8,0.1
		c-0.1,0.1-0.4,0.1-0.5,0.4c-0.2,0.2-0.2,0.6-0.2,0.7c0,0.1,0,0.5,0.1,0.7c0,0,0.1,0.2,0.2,0.4c0.2,0.2,0.7,0.4,1.2,0.4
		c0.2,0,0.6,0,0.8,0c0.4,0,0.7,0,1.1,0c0.7,0,1.1-0.1,1.3-0.2c0.2-0.1,0.4-0.2,0.5-0.4l0.1-0.1c3-1.2,5.4-3.6,6.5-6.7V19h0.1
		c1.3-0.6,1.3-1.8,1.3-3.4v-1C26.7,12.4,26.4,11.1,25,10.7z"/>
</g>
</svg>
