<?xml version="1.0" encoding="UTF-8" standalone="no"?>
<svg width="27px" height="27px" viewBox="0 0 27 27" version="1.1" xmlns="http://www.w3.org/2000/svg" xmlns:xlink="http://www.w3.org/1999/xlink" xmlns:sketch="http://www.bohemiancoding.com/sketch/ns">
    <!-- Generator: Sketch 3.4 (15575) - http://www.bohemiancoding.com/sketch -->
    <title>Shape Copy 9</title>
    <desc>Created with Sketch.</desc>
    <defs></defs>
    <g id="Course-Search" stroke="none" stroke-width="1" fill="none" fill-rule="evenodd" sketch:type="MSPage">
        <g id="Course-Search:-Main" sketch:type="MSArtboardGroup" transform="translate(-1274.000000, -330.000000)" fill="#FFFFFF">
            <g id="Sidebar-/-Navigation-/-Open-/-Overview-Copy" sketch:type="MSLayerGroup" transform="translate(1110.000000, 100.000000)">
                <g id="Icons" transform="translate(37.000000, 77.000000)" sketch:type="MSShapeGroup">
                    <g id="Book-a-call" transform="translate(101.000000, 129.000000)">
                        <g id="Icon" transform="translate(2.000000, 0.000000)">
                            <path d="M37.5750322,24.8425326 C32.1958179,24.8425326 27.7981036,29.0025326 27.3997464,34.2805326 C25.8833893,34.7429612 24.5750322,36.2853183 24.5750322,37.8425326 L24.5750322,39.6996755 C24.5750322,41.5568183 26.432175,43.4139612 28.2893179,43.4139612 C28.2893179,43.4139612 30.1464607,43.4139612 30.1464607,42.4853897 L30.1464607,35.0568183 C30.1464607,34.6064612 29.708175,34.377104 29.2587464,34.2582469 C29.6617464,30.0174612 33.2293179,26.6996755 37.5750322,26.6996755 C41.9207464,26.6996755 45.4883179,30.0174612 45.8922464,34.2582469 C45.4418893,34.377104 45.0036036,34.6064612 45.0036036,35.0568183 L45.0036036,42.4853897 C45.0036036,42.9840326 45.5366036,43.210604 46.0324607,43.3173897 C45.197675,45.0510326 43.7732464,46.4383183 42.0284607,47.2554612 C41.7303893,46.6333183 41.0980322,46.1996755 40.3607464,46.1996755 L36.6464607,46.1996755 C35.6213179,46.1996755 34.7893179,47.0316755 34.7893179,48.0568183 L34.7893179,48.9853897 C34.7893179,50.0105326 35.6213179,50.8425326 36.6464607,50.8425326 L40.3607464,50.8425326 C41.3088179,50.8425326 42.0823179,50.1293897 42.1956036,49.2119612 C44.9460322,48.1422469 47.1188893,45.9201755 48.1152464,43.1335326 C49.4709607,42.5513183 50.5750322,41.130604 50.5750322,39.6996755 L50.5750322,37.8425326 C50.5750322,36.2853183 49.266675,34.7429612 47.7503179,34.2805326 C47.3519607,29.0025326 42.9542464,24.8425326 37.5750322,24.8425326 Z" id="Shape-Copy-9"></path>
                        </g>
                    </g>
                </g>
            </g>
        </g>
    </g>
</svg>