<?xml version="1.0" encoding="utf-8"?>
<!-- Generator: Adobe Illustrator 19.2.0, SVG Export Plug-In . SVG Version: 6.00 Build 0)  -->
<!DOCTYPE svg PUBLIC "-//W3C//DTD SVG 1.1//EN" "http://www.w3.org/Graphics/SVG/1.1/DTD/svg11.dtd">
<svg version="1.1" id="Layer_1" xmlns:sketch="http://www.bohemiancoding.com/sketch/ns"
	 xmlns="http://www.w3.org/2000/svg" xmlns:xlink="http://www.w3.org/1999/xlink" x="0px" y="0px" viewBox="0 0 27 27"
	 style="enable-background:new 0 0 27 27;" xml:space="preserve">
<title>Shape Copy 9</title>
<desc>Created with Sketch.</desc>
<title>Shape Copy 9</title>
<desc>Created with Sketch.</desc>
<g>
	<path d="M12.9,24.1c-0.2-0.4-0.2-0.7-0.2-0.9c0-0.1,0.1-0.6,0.4-0.9c0.2-0.2,0.5-0.3,0.6-0.4c0.3-0.1,0.6-0.2,1-0.2
		c1.1,0,1.8,0,2.1,0c0.1,0,0.3,0,0.5,0.1c0.2,0,0.3,0.1,0.4,0.1c0.5-0.3,1-0.6,1.5-1c0.5-0.9,0.9-1.9,1.1-2.9c0-0.1-0.1-0.2-0.1-0.3
		v-5.9c0-0.1,0-0.1,0-0.2c-0.6-3.2-2.3-5.4-6.8-5.4c-4.4,0-6.1,2.2-6.8,5.4c0,0.1,0,0.1,0,0.2v5.9c0,0.1,0,0.2-0.1,0.3
		c0.8,3.8,3.5,6.6,6.6,6.7c-0.1,0-0.1-0.1-0.2-0.1C13,24.3,12.9,24.1,12.9,24.1z"/>
	<path d="M23,11.3l-0.2-0.1l0-0.2c-0.4-4.8-4.5-8.6-9.3-8.6c-4.9,0-9,3.8-9.3,8.6l0,0.2L4,11.3c-1.1,0.3-1.4,1.4-1.4,3.1V15
		c0,0.8,0.2,3.2,2.1,3.2c0.3,0,1.5-0.1,1.5-0.6v-5.9c0-0.2-0.2-0.4-0.6-0.5l-0.2-0.1l0-0.2c0.4-4.2,3.9-7.4,8.1-7.4
		c4.2,0,7.7,3.2,8.1,7.4l0,0.2l-0.2,0.1c-0.4,0.1-0.6,0.3-0.6,0.5v5.9c0,0.3,0.4,0.4,0.8,0.5l0.3,0.1l-0.2,0.3
		c-0.7,1.5-1.9,2.7-3.4,3.5l0,0c-0.2,0.1-0.4,0.2-0.5,0.3l-0.1,0.1l-0.1,0c-0.1-0.1-0.3-0.1-0.5-0.1c-0.2,0-0.3,0-0.4,0
		c-0.3,0-1,0-2.1,0c0,0-0.1,0-0.1,0c-0.2,0-0.5,0-0.7,0.1c-0.1,0.1-0.3,0.1-0.4,0.3c-0.2,0.2-0.2,0.5-0.2,0.6c0,0.1,0,0.4,0.1,0.6
		c0,0,0.1,0.2,0.2,0.3c0.2,0.2,0.6,0.3,1,0.3c0.2,0,0.5,0,0.7,0c0.3,0,0.6,0,0.9,0c0.6,0,0.9-0.1,1.1-0.2c0.2-0.1,0.3-0.2,0.4-0.3
		l0.1-0.1c2.5-1,4.5-3,5.4-5.6l0-0.1l0.1,0c1.1-0.5,1.1-1.5,1.1-2.8v-0.8C24.4,12.7,24.2,11.6,23,11.3z"/>
</g>
</svg>
