<?xml version="1.0" encoding="UTF-8" standalone="no"?>
<svg width="40px" height="62px" viewBox="0 0 40 62" version="1.1" xmlns="http://www.w3.org/2000/svg" xmlns:xlink="http://www.w3.org/1999/xlink" xmlns:sketch="http://www.bohemiancoding.com/sketch/ns">
    <!-- Generator: Sketch 3.4 (15575) - http://www.bohemiancoding.com/sketch -->
    <title>Shape</title>
    <desc>Created with Sketch.</desc>
    <defs></defs>
    <g id="Splash-Screens" stroke="none" stroke-width="1" fill="none" fill-rule="evenodd" sketch:type="MSPage">
        <g id="Splash:-Main-Menu-Open" sketch:type="MSArtboardGroup" transform="translate(-871.000000, -491.000000)" fill="#FFFFFF">
            <g id="Splash-Button-/-Find-an-Answer" sketch:type="MSLayerGroup" transform="translate(805.857723, 437.000000)">
                <path d="M98.7510231,58.8916198 C94.9172399,56.1274927 90.1020897,54.7420334 84.3089682,54.7420334 C79.8979103,54.7420334 76.1761863,55.7166089 73.1539835,57.6589685 C68.3592077,60.7049415 65.8090118,65.8800395 65.5,73.1740752 L76.614236,73.1740752 C76.614236,71.048346 77.2356552,69.0007186 78.475098,67.0277974 C79.7145407,65.0548762 81.8198955,64.0701135 84.7877667,64.0701135 C87.8065738,64.0701135 89.8847627,64.8715066 91.0223335,66.4708971 C92.1599042,68.0736833 92.7303875,69.8462563 92.7303875,71.7886159 C92.7303875,73.4796912 91.8814541,75.0281457 90.8593383,76.4339794 C90.2956465,77.2557469 89.5553766,78.0095998 88.6351328,78.6989337 C88.6351328,78.6989337 82.6077057,82.5666742 79.9590335,85.6703747 C78.424162,87.4735092 78.2883326,90.1697217 78.1525033,94.0408579 C78.1423161,94.3159123 78.2475838,94.8863956 79.2119721,94.8863956 L87.8575098,94.8863956 C88.7132347,94.8863956 88.8932085,94.2479977 88.9067915,93.9695475 C88.9679147,92.5569224 89.1241184,91.8404226 89.3821942,91.0254465 C89.8711798,89.4871792 91.1887244,88.1424687 92.67266,86.991315 L95.7322159,84.8791688 C98.4929473,82.7262737 100.696778,80.9604922 101.667958,79.5784287 C103.331868,77.3032872 104.5,74.4950155 104.5,71.1705924 C104.5,65.7510016 102.584806,61.6557469 98.7510231,58.8916198 L98.7510231,58.8916198 Z M84.1289943,101.555616 C80.2986069,101.440161 77.1337832,104.092229 77.0149325,108.245211 C76.8960818,112.398194 79.9047018,115.141946 83.7350892,115.254006 C87.7352634,115.372856 90.8084023,112.809077 90.9306487,108.656095 C91.0494993,104.503113 88.1291685,101.674467 84.1289943,101.555616 L84.1289943,101.555616 Z" id="Shape" sketch:type="MSShapeGroup"></path>
            </g>
        </g>
    </g>
</svg>