<?xml version="1.0" encoding="UTF-8" standalone="no"?>
<svg width="28px" height="22px" viewBox="0 0 28 22" version="1.1" xmlns="http://www.w3.org/2000/svg" xmlns:xlink="http://www.w3.org/1999/xlink" xmlns:sketch="http://www.bohemiancoding.com/sketch/ns">
    <!-- Generator: Sketch 3.4 (15575) - http://www.bohemiancoding.com/sketch -->
    <title>Imported Layers Copy</title>
    <desc>Created with Sketch.</desc>
    <defs></defs>
    <g id="Course-Search" stroke="none" stroke-width="1" fill="none" fill-rule="evenodd" sketch:type="MSPage">
        <g id="Course-Search:-Main" sketch:type="MSArtboardGroup" transform="translate(-571.000000, -44.000000)" fill="#00A1B0">
            <g id="Navigation-Bar--/-Logged-in-/-Find-a-course" sketch:type="MSLayerGroup" transform="translate(170.000000, 5.000000)">
                <path d="M427.8087,59.6622389 L426.596955,59.6622389 L426.596955,48.811081 L427.525125,49.3207126 C427.615678,49.3703441 427.712785,49.3933441 427.808104,49.3933441 C428.019593,49.3933441 428.225125,49.2789494 428.332955,49.0761862 C428.489636,48.7820284 428.38121,48.4146336 428.092274,48.2560547 L411.370317,39.0723968 C411.080785,38.9144231 410.719168,39.0233705 410.562487,39.3175284 C410.406402,39.611081 410.514231,39.9784757 410.803763,40.1376599 L412.750657,41.2071599 L412.750657,44.9640284 L403.227083,49.616081 C403.178231,49.6318178 403.134742,49.6542126 403.092444,49.6814494 L401.337976,50.538502 C401.041295,50.6831599 400.916189,51.0451073 401.059168,51.3465284 C401.161636,51.5632126 401.374317,51.6897126 401.595934,51.6897126 C401.682912,51.6897126 401.770487,51.6703441 401.853891,51.6297915 L402.808274,51.1631336 L402.808274,59.6622389 L401.595934,59.6622389 C401.267083,59.6622389 401.000189,59.9333968 401.000189,60.267502 C401.000189,60.6022126 401.267083,60.8727652 401.595934,60.8727652 L427.8087,60.8727652 C428.138146,60.8727652 428.404444,60.6022126 428.404444,60.267502 C428.404444,59.9333968 428.138146,59.6622389 427.8087,59.6622389 L427.8087,59.6622389 Z M416.057636,53.6477389 L419.077466,53.6477389 L419.077466,59.6628441 L416.057636,59.6628441 L416.057636,53.6477389 Z M420.269551,53.6477389 L423.28938,53.6477389 L423.28938,59.6628441 L420.269551,59.6628441 L420.269551,53.6477389 Z M406.115253,53.6477389 L410.634572,53.6477389 L410.634572,59.6628441 L406.115253,59.6628441 L406.115253,53.6477389 Z" id="Imported-Layers-Copy" sketch:type="MSShapeGroup"></path>
            </g>
        </g>
    </g>
</svg>