<?xml version="1.0" encoding="utf-8"?>
<!-- Generator: Adobe Illustrator 20.0.0, SVG Export Plug-In . SVG Version: 6.00 Build 0)  -->
<!DOCTYPE svg PUBLIC "-//W3C//DTD SVG 1.1//EN" "http://www.w3.org/Graphics/SVG/1.1/DTD/svg11.dtd">
<svg version="1.1" id="Layer_1" xmlns="http://www.w3.org/2000/svg" xmlns:xlink="http://www.w3.org/1999/xlink" x="0px" y="0px"
	 viewBox="0 0 100 100" style="enable-background:new 0 0 100 100;" xml:space="preserve">
<path d="M85.9,9.5L9.6,15.8C3.7,16.5,0,21.3,0,27.6v29.6c0,5.9,3,11.1,8.9,11.5l19.6,1.9c0,0,3.7,5.9,1.1,11.9
	c-3,5.9-7.4,8.1-7.4,8.1c15.6,0,24.4-11.5,28.9-18.1L85.9,75c6.7,0.7,14.1-4.8,14.1-11.5V20.9C100,14.3,92.6,9.1,85.9,9.5z
	 M23.7,46.9c-3.3,0-6.3-2.6-6.3-6.3c0-3.3,2.6-6.3,6.3-6.3c3.3,0.4,5.9,3,5.9,6.7C29.6,44.3,27,46.9,23.7,46.9z M48.9,46.9
	c-3.3,0-6.3-2.6-6.3-6.3c0-3.3,2.6-6.3,6.3-6.3c3.3,0,6.3,2.6,6.3,6.3C54.8,44.3,52.2,46.9,48.9,46.9z M73.7,46.9
	c-3.3,0-6.3-2.6-6.3-6.3c0-3.3,2.6-6.3,6.3-6.3c3.3,0,6.3,2.6,6.3,6.3C80,44.3,77.4,46.9,73.7,46.9z"/>
</svg>
