<?xml version="1.0" encoding="utf-8"?>
<!-- Generator: Adobe Illustrator 20.0.0, SVG Export Plug-In . SVG Version: 6.00 Build 0)  -->
<!DOCTYPE svg PUBLIC "-//W3C//DTD SVG 1.1//EN" "http://www.w3.org/Graphics/SVG/1.1/DTD/svg11.dtd">
<svg version="1.1" id="Layer_1" xmlns="http://www.w3.org/2000/svg" xmlns:xlink="http://www.w3.org/1999/xlink" x="0px" y="0px"
	 viewBox="0 0 512 512" style="enable-background:new 0 0 512 512;" xml:space="preserve">
<path d="M393.9,100.3l-293,24.2C78.2,127.2,64,145.6,64,169.8v113.7c0,22.7,11.5,42.6,34.2,44.2l75.3,7.3c0,0,14.2,22.7,4.2,45.7
	c-11.5,22.7-28.4,31.1-28.4,31.1c59.9,0,93.7-44.2,111-69.5l133.6,9.6c25.7,2.7,54.1-18.4,54.1-44.2V144.1
	C448,118.8,419.6,98.8,393.9,100.3z M155,243.9c-12.7,0-24.2-10-24.2-24.2c0-12.7,10-24.2,24.2-24.2c12.7,1.5,22.7,11.5,22.7,25.7
	C177.7,234,167.7,243.9,155,243.9z M251.8,243.9c-12.7,0-24.2-10-24.2-24.2c0-12.7,10-24.2,24.2-24.2c12.7,0,24.2,10,24.2,24.2
	C274.4,234,264.4,243.9,251.8,243.9z M347,243.9c-12.7,0-24.2-10-24.2-24.2c0-12.7,10-24.2,24.2-24.2c12.7,0,24.2,10,24.2,24.2
	S361.2,243.9,347,243.9z"/>
</svg>
