<?xml version="1.0" encoding="UTF-8" standalone="no"?>
<svg width="13px" height="13px" viewBox="0 0 13 13" version="1.1" xmlns="http://www.w3.org/2000/svg" xmlns:xlink="http://www.w3.org/1999/xlink" xmlns:sketch="http://www.bohemiancoding.com/sketch/ns">
    <!-- Generator: Sketch 3.4 (15575) - http://www.bohemiancoding.com/sketch -->
    <title>Shape</title>
    <desc>Created with Sketch.</desc>
    <defs></defs>
    <g id="Course-Search" stroke="none" stroke-width="1" fill="none" fill-rule="evenodd" sketch:type="MSPage">
        <g id="Course-Search:-Main" sketch:type="MSArtboardGroup" transform="translate(-1341.000000, -11.000000)" fill="#FFFFFF">
            <g id="Navigation-Bar--/-Logged-in-/-Find-a-course" sketch:type="MSLayerGroup" transform="translate(170.000000, 5.000000)">
                <g id="User-Information-Copy" transform="translate(1048.000000, 0.000000)" sketch:type="MSShapeGroup">
                    <g id="ios-person-copy" transform="translate(117.000000, 0.000000)">
                        <path d="M14.8369792,16.1130208 C14.5890625,16.0583333 14.228125,15.9197917 14.1078125,15.7776042 C13.9875,15.6317708 14.0604167,14.2864583 14.0604167,14.2864583 C14.0604167,14.2864583 14.2828125,13.9364583 14.403125,13.6302083 C14.5234375,13.3239583 14.6546875,12.4854167 14.6546875,12.4854167 C14.6546875,12.4854167 14.9026042,12.4854167 14.9901042,12.0515625 C15.0848958,11.5776042 15.2307292,11.3807292 15.2125,11.0270833 C15.1942708,10.6989583 15.0229167,10.6807292 15.0046875,10.6807292 C15.0046875,10.6807292 15.1833333,10.1848958 15.2088542,9.13489583 C15.2380208,7.89166667 14.2864583,6.66666667 12.5,6.66666667 C10.7135417,6.66666667 9.765625,7.88802083 9.79114583,9.13125 C9.81302083,10.1776042 9.9953125,10.6770833 9.9953125,10.6770833 C9.97708333,10.6770833 9.80572917,10.6953125 9.7875,11.0234375 C9.76927083,11.3770833 9.91875,11.5666667 10.0098958,12.040625 C10.0973958,12.4744792 10.3453125,12.478125 10.3453125,12.478125 C10.3453125,12.478125 10.4765625,13.3203125 10.596875,13.6265625 C10.7171875,13.9364583 10.9395833,14.2828125 10.9395833,14.2828125 C10.9395833,14.2828125 11.0125,15.628125 10.8921875,15.7739583 C10.771875,15.9197917 10.4109375,16.0546875 10.1630208,16.109375 C9.72916667,16.2041667 9.05833333,16.2661458 8.58802083,16.4338542 C8.11770833,16.6015625 6.66666667,17.1666667 6.66666667,18.3333333 L12.5,18.3333333 L18.3333333,18.3333333 C18.3333333,17.1666667 16.8822917,16.6015625 16.4119792,16.4338542 C15.9416667,16.2661458 15.2671875,16.2078125 14.8369792,16.1130208 Z" id="Shape"></path>
                    </g>
                </g>
            </g>
        </g>
    </g>
</svg>