<svg xmlns="http://www.w3.org/2000/svg" xmlns:xlink="http://www.w3.org/1999/xlink" preserveAspectRatio="xMidYMid" width="512" height="512" viewBox="0 0 512 512">
  <defs>
    <style>
      .cls-1 {
        fill: #000;
        fill-rule: evenodd;
      }
    </style>
  </defs>
  <path d="M508.856,446.846 L380.755,318.684 C401.619,286.461 413.824,248.085 413.824,206.894 C413.824,92.915 320.982,-0.000 206.964,-0.000 C92.842,0.104 -0.000,92.915 -0.000,206.999 C-0.000,320.978 92.842,413.789 206.964,413.789 C248.169,413.789 286.558,401.588 318.791,380.731 L446.892,508.789 C451.169,513.065 458.158,513.065 462.435,508.789 L508.960,462.279 C513.029,458.108 513.029,451.121 508.856,446.846 ZM206.964,348.091 C129.040,348.091 65.719,284.793 65.719,206.894 C65.719,128.996 129.040,65.697 206.964,65.697 C284.888,65.697 348.104,128.996 348.104,206.894 C348.104,284.793 284.680,348.091 206.964,348.091 Z" class="cls-1"/>
</svg>
