<?xml version="1.0" encoding="UTF-8" standalone="no"?>
<svg width="511px" height="511px" viewBox="0 0 511 511" version="1.1" xmlns="http://www.w3.org/2000/svg" xmlns:xlink="http://www.w3.org/1999/xlink" xmlns:sketch="http://www.bohemiancoding.com/sketch/ns">
    <!-- Generator: Sketch 3.3.3 (12081) - http://www.bohemiancoding.com/sketch -->
    <title>search</title>
    <desc>Created with Sketch.</desc>
    <defs></defs>
    <g id="Page-1" stroke="none" stroke-width="1" fill="none" fill-rule="evenodd" sketch:type="MSPage">
        <g id="search" sketch:type="MSLayerGroup" fill="#000000">
            <path d="M507.68458,445.866667 L379.86742,318.037333 C400.664377,285.830096 412.879246,247.57638 412.879246,206.457904 C412.879246,92.6232377 320.280377,0 206.457913,0 C92.6232462,0 0,92.6232377 0,206.457904 C0,320.268191 92.6232462,412.90362 206.457913,412.90362 C247.564203,412.90362 285.817913,400.676571 318.037333,379.87962 L445.866667,507.684571 C450.121131,511.939046 457.057536,511.939046 461.324203,507.684571 L507.68458,461.324191 C511.939044,457.081904 511.939044,450.121142 507.68458,445.866667 M65.5725796,206.457904 C65.5725796,128.768 128.780203,65.5847623 206.457913,65.5847623 C284.12342,65.5847623 347.306667,128.768 347.306667,206.457904 C347.306667,284.123429 284.12342,347.318858 206.457913,347.318858 C128.780203,347.318858 65.5725796,284.123429 65.5725796,206.457904" id="Imported-Layers-Copy-3" sketch:type="MSShapeGroup"></path>
        </g>
    </g>
</svg>