<?xml version="1.0" encoding="utf-8"?>
<!-- Generator: Adobe Illustrator 19.1.0, SVG Export Plug-In . SVG Version: 6.00 Build 0)  -->
<!DOCTYPE svg PUBLIC "-//W3C//DTD SVG 1.1//EN" "http://www.w3.org/Graphics/SVG/1.1/DTD/svg11.dtd">
<svg version="1.1" id="Layer_1" xmlns:sketch="http://www.bohemiancoding.com/sketch/ns"
	 xmlns="http://www.w3.org/2000/svg" xmlns:xlink="http://www.w3.org/1999/xlink" x="0px" y="0px" viewBox="241 -240 511 511"
	 enable-background="new 241 -240 511 511" xml:space="preserve">
<title>search</title>
<desc>Created with Sketch.</desc>
<path d="M735.5,198.5L612.7,75.6c20-30.9,31.7-67.7,31.7-107.2c0-109.3-89-198.4-198.3-198.4c-109.4,0.1-198.4,89.1-198.4,198.5
	c0,109.3,89,198.3,198.4,198.3c39.5,0,76.3-11.7,107.2-31.7l122.8,122.8c4.1,4.1,10.8,4.1,14.9,0l44.6-44.6
	C739.5,209.3,739.5,202.6,735.5,198.5z M446.1,103.8c-74.7,0-135.4-60.7-135.4-135.4S371.4-167,446.1-167s135.3,60.7,135.3,135.4
	S520.6,103.8,446.1,103.8z"/>
</svg>
