<?xml version="1.0" encoding="UTF-8" standalone="no"?>
<svg width="18px" height="18px" viewBox="0 0 18 18" version="1.1" xmlns="http://www.w3.org/2000/svg" xmlns:xlink="http://www.w3.org/1999/xlink" xmlns:sketch="http://www.bohemiancoding.com/sketch/ns">
    <!-- Generator: Sketch 3.4 (15575) - http://www.bohemiancoding.com/sketch -->
    <title>Imported Layers Copy 3</title>
    <desc>Created with Sketch.</desc>
    <defs></defs>
    <g id="Course-Search" stroke="none" stroke-width="1" fill="none" fill-rule="evenodd" sketch:type="MSPage">
        <g id="Course-Search:-Main" sketch:type="MSArtboardGroup" transform="translate(-1321.000000, -515.000000)" fill="#FFFFFF">
            <g id="Sidebar-/-Search-/-Answers" sketch:type="MSLayerGroup" transform="translate(1110.000000, 450.000000)">
                <g id="Search-Bar" sketch:type="MSShapeGroup">
                    <path d="M228.848286,80.675 L224.354714,76.181 C225.085857,75.0487143 225.515286,73.7038571 225.515286,72.2582857 C225.515286,68.2562857 222.259857,65 218.258286,65 C214.256286,65 211,68.2562857 211,72.2582857 C211,76.2594286 214.256286,79.5161429 218.258286,79.5161429 C219.703429,79.5161429 221.048286,79.0862857 222.181,78.3551429 L226.675,82.8482857 C226.824571,82.9978571 227.068429,82.9978571 227.218429,82.8482857 L228.848286,81.2184286 C228.997857,81.0692857 228.997857,80.8245714 228.848286,80.675 M213.305286,72.2582857 C213.305286,69.527 215.527429,67.3057143 218.258286,67.3057143 C220.988714,67.3057143 223.21,69.527 223.21,72.2582857 C223.21,74.9887143 220.988714,77.2104286 218.258286,77.2104286 C215.527429,77.2104286 213.305286,74.9887143 213.305286,72.2582857" id="Imported-Layers-Copy-3"></path>
                </g>
            </g>
        </g>
    </g>
</svg>