<svg xmlns="http://www.w3.org/2000/svg" xmlns:xlink="http://www.w3.org/1999/xlink" preserveAspectRatio="xMidYMid" width="50" height="50" viewBox="0 0 50 50">
  <defs>
    <style>
      .cls-1 {
        fill: #000;
        fill-rule: evenodd;
      }
    </style>
  </defs>
  <path d="M35.154,26.399 C33.998,30.182 31.842,33.230 28.686,35.543 C25.530,37.857 21.968,39.014 18.000,39.014 C14.032,39.014 10.470,37.857 7.314,35.543 C4.158,33.230 2.002,30.182 0.846,26.399 C0.598,25.618 0.660,24.860 1.032,24.123 C1.404,23.387 1.998,22.895 2.814,22.646 C3.594,22.398 4.352,22.460 5.088,22.833 C5.824,23.205 6.316,23.799 6.564,24.616 C7.344,27.118 8.790,29.143 10.902,30.692 C13.014,32.241 15.382,33.016 18.006,33.016 C20.630,33.016 22.998,32.241 25.110,30.692 C27.222,29.143 28.668,27.118 29.448,24.616 C29.696,23.803 30.196,23.209 30.948,22.833 C31.700,22.456 32.466,22.394 33.246,22.646 C34.026,22.899 34.604,23.391 34.980,24.123 C35.356,24.856 35.418,25.614 35.166,26.399 L35.154,26.399 ZM12.000,5.997 C12.000,7.654 11.414,9.069 10.242,10.242 C9.070,11.415 7.656,12.001 6.000,12.001 C4.344,12.001 2.930,11.415 1.758,10.242 C0.586,9.069 -0.000,7.654 -0.000,5.997 C-0.000,4.340 0.586,2.925 1.758,1.752 C2.930,0.579 4.344,-0.007 6.000,-0.007 C7.656,-0.007 9.070,0.579 10.242,1.752 C11.414,2.925 12.000,4.340 12.000,5.997 ZM36.000,5.997 C36.000,7.654 35.414,9.069 34.242,10.242 C33.070,11.415 31.656,12.001 30.000,12.001 C28.344,12.001 26.930,11.415 25.758,10.242 C24.586,9.069 24.000,7.654 24.000,5.997 C24.000,4.340 24.586,2.925 25.758,1.752 C26.930,0.579 28.344,-0.007 30.000,-0.007 C31.656,-0.007 33.070,0.579 34.242,1.752 C35.414,2.925 36.000,4.340 36.000,5.997 Z" transform="translate(7 5.5)" class="cls-1"/>
</svg>
