<?xml version="1.0" encoding="utf-8"?>
<!-- Generator: Adobe Illustrator 21.0.0, SVG Export Plug-In . SVG Version: 6.00 Build 0)  -->
<!DOCTYPE svg PUBLIC "-//W3C//DTD SVG 1.1//EN" "http://www.w3.org/Graphics/SVG/1.1/DTD/svg11.dtd">
<svg version="1.1" id="Layer_1" xmlns="http://www.w3.org/2000/svg" xmlns:xlink="http://www.w3.org/1999/xlink" x="0px" y="0px"
	 viewBox="0 0 512 512" style="enable-background:new 0 0 512 512;" xml:space="preserve">
<g>
	<g>
		<path d="M469.3,25.6h-42.7c-4.7,0-8.5,3.8-8.5,8.5h-52l0.8-8.5c0-14.1-11.5-25.6-25.6-25.6H170.7c-14.1,0-25.6,11.5-25.6,26.4
			l0.7,7.8H93.9c0-4.7-3.8-8.5-8.5-8.5H42.7c-18.8,0-34.1,15.3-34.1,34.1c0,18.8,15.3,34.1,34.1,34.1h42.7c4.7,0,8.5-3.8,8.5-8.5
			h56.6l8.9,97.7c1.6,18.1,14.3,32.5,31,37.1l12,66c1.9,10.2,9.7,18,19.5,20.3v51.9c0,8.6,3.3,16.3,8.5,22.3v97.1
			c0,1.7,0.5,3.3,1.4,4.7l17.1,25.6c1.6,2.4,4.2,3.8,7.1,3.8c2.9,0,5.5-1.4,7.1-3.8l17.1-25.6c0.9-1.4,1.4-3.1,1.4-4.7v-97.1
			c5.2-6,8.5-13.8,8.5-22.3v-51.9c9.8-2.3,17.6-10.1,19.5-20.3l12-66c16.7-4.6,29.4-18.9,31-37.1l8.9-97.7h56.6
			c0,4.7,3.8,8.5,8.5,8.5h42.7c18.8,0,34.1-15.3,34.1-34.1C503.5,40.9,488.2,25.6,469.3,25.6z"/>
	</g>
</g>
</svg>
