<?xml version="1.0" encoding="iso-8859-1"?>
<!-- Generator: Adobe Illustrator 16.0.0, SVG Export Plug-In . SVG Version: 6.00 Build 0)  -->
<!DOCTYPE svg PUBLIC "-//W3C//DTD SVG 1.1//EN" "http://www.w3.org/Graphics/SVG/1.1/DTD/svg11.dtd">
<svg version="1.1" id="Capa_1" xmlns="http://www.w3.org/2000/svg" xmlns:xlink="http://www.w3.org/1999/xlink" x="0px" y="0px"
	 width="27.375px" height="27.375px" viewBox="0 0 27.375 27.375" style="enable-background:new 0 0 27.375 27.375;"
	 xml:space="preserve">
<g>
	<path d="M26.384,14.621C26.384,6.56,20.688,0,13.687,0C6.686,0,0.991,6.56,0.991,14.621c0,2.496,0.557,4.962,1.61,7.134
		l1.074,2.215c0.037,0.147,1.566,2.685,1.566,2.685c0.438,0.712,1.37,0.935,2.082,0.497l3.224-1.981
		c0.712-0.438,0.935-1.37,0.497-2.082l-1.387-2.256c-0.438-0.712-1.37-0.935-2.082-0.497l-0.043,0.027L7.14,19.554
		c-0.722-1.49-1.104-3.195-1.104-4.932c0-5.28,3.432-9.576,7.651-9.576c4.219,0,7.652,4.296,7.652,9.576
		c0,1.737-0.383,3.444-1.104,4.932l-0.39,0.803l-0.037-0.021c-0.711-0.438-1.644-0.215-2.082,0.497l-1.387,2.256
		c-0.438,0.712-0.215,1.644,0.498,2.082l3.223,1.981c0.713,0.438,1.645,0.215,2.082-0.497c0,0,1.539-2.561,1.574-2.72l1.057-2.18
		C25.826,19.583,26.384,17.117,26.384,14.621z M2.762,15.328l0.083-2.233c0.014-0.388,0.344-0.688,0.737-0.669
		c0.393,0.02,0.699,0.35,0.685,0.737l-0.083,2.233c-0.014,0.388-0.344,0.688-0.737,0.668C3.054,16.045,2.748,15.715,2.762,15.328z
		 M3.877,18.161c0.362-0.155,0.783,0.008,0.941,0.362l0.91,2.043c0.158,0.355-0.007,0.77-0.368,0.924
		c-0.362,0.154-0.783-0.008-0.941-0.363l-0.91-2.043C3.351,18.728,3.515,18.316,3.877,18.161z M6.087,7.676l-1.04,1.978
		c-0.181,0.344-0.608,0.472-0.954,0.286s-0.48-0.614-0.299-0.958l1.041-1.978C5.016,6.66,5.443,6.532,5.789,6.718
		C6.134,6.904,6.268,7.333,6.087,7.676z M9.897,4.088L8.051,5.345C7.73,5.563,7.292,5.478,7.072,5.151
		c-0.22-0.325-0.138-0.767,0.183-0.984L9.101,2.91c0.321-0.218,0.76-0.132,0.979,0.193C10.3,3.43,10.218,3.869,9.897,4.088z
		 M14.796,3.214l-2.234,0.038c-0.388,0.007-0.708-0.306-0.715-0.699c-0.007-0.392,0.303-0.716,0.691-0.722l2.232-0.038
		c0.389-0.007,0.709,0.307,0.716,0.699C15.492,2.884,15.183,3.207,14.796,3.214z M20.302,5.078
		c-0.209,0.332-0.644,0.433-0.972,0.225l-1.887-1.194C17.115,3.9,17.019,3.462,17.228,3.13s0.644-0.433,0.972-0.225l1.888,1.195
		C20.414,4.309,20.511,4.746,20.302,5.078z M21.246,7.675c-0.192-0.338-0.071-0.771,0.269-0.967c0.34-0.197,0.771-0.082,0.963,0.255
		l1.104,1.942c0.192,0.338,0.072,0.771-0.268,0.967c-0.34,0.197-0.771,0.082-0.963-0.255L21.246,7.675z M24.097,19.051l-0.851,2.068
		c-0.147,0.36-0.563,0.534-0.93,0.39c-0.366-0.144-0.543-0.553-0.396-0.912l0.85-2.067c0.148-0.36,0.564-0.534,0.931-0.39
		C24.067,18.284,24.244,18.693,24.097,19.051z M23.986,16.013c-0.392,0.032-0.731-0.257-0.759-0.645l-0.154-2.228
		c-0.027-0.389,0.27-0.728,0.66-0.76c0.392-0.031,0.73,0.258,0.758,0.646l0.154,2.228C24.673,15.642,24.378,15.982,23.986,16.013z"
		/>
</g>
<g>
</g>
<g>
</g>
<g>
</g>
<g>
</g>
<g>
</g>
<g>
</g>
<g>
</g>
<g>
</g>
<g>
</g>
<g>
</g>
<g>
</g>
<g>
</g>
<g>
</g>
<g>
</g>
<g>
</g>
</svg>
