<?xml version="1.0" encoding="UTF-8" standalone="no"?>
<svg width="24px" height="26px" viewBox="0 0 24 26" version="1.1" xmlns="http://www.w3.org/2000/svg" xmlns:xlink="http://www.w3.org/1999/xlink" xmlns:sketch="http://www.bohemiancoding.com/sketch/ns">
    <!-- Generator: Sketch 3.4 (15575) - http://www.bohemiancoding.com/sketch -->
    <title>Imported Layers</title>
    <desc>Created with Sketch.</desc>
    <defs></defs>
    <g id="Course-Search" stroke="none" stroke-width="1" fill="none" fill-rule="evenodd" sketch:type="MSPage">
        <g id="Course-Search:-Main" sketch:type="MSArtboardGroup" transform="translate(-1172.000000, -332.000000)" fill="#FFFFFF">
            <g id="Sidebar-/-Navigation-/-Open-/-Overview-Copy" sketch:type="MSLayerGroup" transform="translate(1110.000000, 100.000000)">
                <g id="Icons" transform="translate(37.000000, 77.000000)" sketch:type="MSShapeGroup">
                    <g id="Phone-us" transform="translate(0.000000, 129.000000)">
                        <g id="Icon">
                            <path d="M29.543687,26.5093789 C29.543687,26.5093789 25.149687,28.5480153 25.8800506,33.1996516 C25.8800506,33.1996516 26.6234143,39.1595607 30.4548688,43.7863789 C34.2863234,48.4143789 38.0634143,51.0356516 40.9565052,51.5036516 C43.8484143,51.9728334 46.9034143,51.2885607 47.7141416,49.2286516 C48.523687,47.1711062 48.6194143,46.8614698 48.4031416,46.7019243 C48.1868688,46.5411971 43.7763234,43.7461971 43.1215961,42.8527425 C42.8013234,42.414288 41.6502325,43.3940153 41.3819597,43.7544698 C41.1160506,44.1137425 39.2535052,45.6619243 39.1282325,45.6796516 C39.0029597,45.6985607 35.3357779,43.3821971 34.0015052,41.2324698 C32.6684143,39.0815607 31.0493234,36.4744698 31.4629597,35.9757425 C31.8765961,35.4781971 33.768687,34.2219243 33.9495052,33.8874698 C34.1315052,33.5530153 33.9211416,32.6595607 33.4720506,30.5831062 C33.0229597,28.5078334 32.7570506,27.2385607 32.4285052,27.0175607 C32.1011416,26.7965607 30.0128688,26.2481971 29.543687,26.5093789" id="Imported-Layers"></path>
                        </g>
                    </g>
                </g>
            </g>
        </g>
    </g>
</svg>